<svg xmlns="http://www.w3.org/2000/svg" width="1200" height="630" viewBox="0 0 1200 630" role="img" aria-labelledby="title desc">
  <title id="title">UK SIM Keep-Number Reminder</title>
  <desc id="desc">A calm green product card with a calendar and SIM illustration.</desc>
  <defs>
    <linearGradient id="bg" x1="0" y1="0" x2="1" y2="1">
      <stop offset="0" stop-color="#f7fff9"/>
      <stop offset="1" stop-color="#e6f6ee"/>
    </linearGradient>
    <filter id="shadow" x="-20%" y="-20%" width="140%" height="140%">
      <feDropShadow dx="0" dy="18" stdDeviation="22" flood-color="#173f31" flood-opacity=".16"/>
    </filter>
  </defs>
  <rect width="1200" height="630" fill="url(#bg)"/>
  <circle cx="1110" cy="40" r="240" fill="#d2f2e3"/>
  <circle cx="1050" cy="580" r="180" fill="#f7d987" opacity=".55"/>
  <g transform="translate(74 74)">
    <rect width="100" height="100" rx="28" fill="#162c24"/>
    <text x="50" y="63" text-anchor="middle" font-family="Arial, Helvetica, sans-serif" font-size="38" font-weight="800" fill="#fff">GG</text>
  </g>
  <text x="74" y="232" font-family="Arial, Helvetica, sans-serif" font-size="28" font-weight="700" fill="#16825d">FREE BROWSER TOOL</text>
  <text x="74" y="300" font-family="Arial, Helvetica, sans-serif" font-size="58" font-weight="800" fill="#162c24">UK SIM Keep-Number</text>
  <text x="74" y="368" font-family="Arial, Helvetica, sans-serif" font-size="58" font-weight="800" fill="#162c24">Reminder</text>
  <text x="74" y="424" font-family="Arial, Helvetica, sans-serif" font-size="25" fill="#486057">Private, local-only calendar reminders — no sign-up.</text>
  <g transform="translate(74 476)">
    <rect width="207" height="58" rx="29" fill="#16825d"/>
    <text x="103.5" y="37" text-anchor="middle" font-family="Arial, Helvetica, sans-serif" font-size="21" font-weight="700" fill="#fff">Create reminder</text>
  </g>
  <text x="74" y="582" font-family="Arial, Helvetica, sans-serif" font-size="20" font-weight="700" fill="#486057">getgiffgaff.com/tools/keep-number-reminder/</text>
  <g transform="translate(808 156)" filter="url(#shadow)">
    <rect width="300" height="330" rx="38" fill="#fff"/>
    <rect width="300" height="82" rx="38" fill="#162c24"/>
    <rect y="55" width="300" height="27" fill="#162c24"/>
    <circle cx="72" cy="38" r="10" fill="#f7d987"/>
    <circle cx="228" cy="38" r="10" fill="#f7d987"/>
    <text x="150" y="153" text-anchor="middle" font-family="Arial, Helvetica, sans-serif" font-size="22" font-weight="700" fill="#486057">MONTH</text>
    <text x="150" y="260" text-anchor="middle" font-family="Arial, Helvetica, sans-serif" font-size="112" font-weight="800" fill="#16825d">5</text>
    <path d="M215 260h46v58h-84v-34z" fill="#f7d987"/>
    <path d="M215 260h46l-46 24z" fill="#e7bd55"/>
    <rect x="191" y="275" width="56" height="31" rx="5" fill="#fff4c9"/>
  </g>
</svg>
