<svg xmlns="http://www.w3.org/2000/svg" width="6480" height="1440" viewBox="0 0 6480 1440" role="img" aria-labelledby="title desc">
  <title id="title">英国手机卡六问小红书六张图卡</title><desc id="desc">六张横向排列的竖版中文图卡，按停留用途、区域覆盖、付费期限、SIM 形态、获取验收和长期维护呈现选卡框架。</desc>
  <defs><style>.t{font-family:Arial,'PingFang SC',sans-serif}.head{font-size:67px;font-weight:800;fill:#132f46}.sub{font-size:31px;fill:#44606d}.tag{font-size:30px;font-weight:700;fill:#9c3b35}.card{fill:#fffdf8}.line{font-size:35px;font-weight:800;fill:#132f46}.note{font-size:27px;fill:#44606d}</style></defs>
  <g transform="translate(0)"><rect width="1080" height="1440" fill="#f7f5ef"/><circle cx="950" cy="120" r="225" fill="#d5e3e6"/><text x="80" y="142" class="t tag">留学 · 旅行 · 长期维护</text><text x="80" y="244" class="t head">英国手机卡</text><text x="80" y="328" class="t head">先问 6 件事</text><text x="84" y="396" class="t sub">别急着看套餐和排行榜</text><rect x="78" y="504" width="924" height="452" rx="36" class="card"/><text x="126" y="602" class="t line">选卡前，先把</text><text x="126" y="666" class="t line">自己的使用条件</text><text x="126" y="730" class="t line">写清楚</text><circle cx="780" cy="766" r="103" fill="#17384e"/><text x="738" y="785" class="t" font-size="50" font-weight="800" fill="#fff">6 问</text><text x="80" y="1246" class="t sub">giffgaff 只是候选之一，条件匹配才值得继续看</text><text x="80" y="1382" class="t" font-size="23" fill="#5d7180">独立第三方教程 · 规则以当天官方页面为准</text></g>
  <g transform="translate(1080)"><rect width="1080" height="1440" fill="#f7f5ef"/><circle cx="950" cy="120" r="225" fill="#e7cdbf"/><text x="80" y="142" class="t tag">第 1 问</text><text x="80" y="244" class="t head">待多久？</text><text x="80" y="328" class="t head">主要做什么？</text><rect x="78" y="453" width="924" height="392" rx="34" class="card"/><text x="126" y="548" class="t line">短期旅行</text><text x="126" y="609" class="t note">导航、打车、日常上网</text><text x="126" y="704" class="t line">留学或长期居住</text><text x="126" y="765" class="t note">通话、短信、号码维护</text><text x="80" y="950" class="t sub">不要把“需要英国号码”和“需要某平台验证码”混在一起</text><text x="80" y="1382" class="t" font-size="23" fill="#5d7180">任何 SIM 都不应写成验证码保证工具</text></g>
  <g transform="translate(2160)"><rect width="1080" height="1440" fill="#f7f5ef"/><circle cx="950" cy="120" r="225" fill="#d5e3e6"/><text x="80" y="142" class="t tag">第 2 问</text><text x="80" y="244" class="t head">常住区域</text><text x="80" y="328" class="t head">覆盖如何？</text><rect x="78" y="453" width="924" height="394" rx="34" class="card"/><text x="126" y="548" class="t line">用预计邮编</text><text x="126" y="609" class="t note">核对宿舍、学校、工作地和通勤区域</text><text x="126" y="704" class="t line">把覆盖预测</text><text x="126" y="765" class="t note">当作判断输入，不当作服务保证</text><text x="80" y="951" class="t sub">全国覆盖宣传不能替代具体地点判断</text><text x="80" y="1382" class="t" font-size="23" fill="#5d7180">发布当天另补一张无个人信息的官方覆盖截图</text></g>
  <g transform="translate(3240)"><rect width="1080" height="1440" fill="#f7f5ef"/><circle cx="950" cy="120" r="225" fill="#e7cdbf"/><text x="80" y="142" class="t tag">第 3 问</text><text x="80" y="244" class="t head">看流量前</text><text x="80" y="328" class="t head">先看期限</text><rect x="78" y="453" width="924" height="409" rx="34" class="card"/><text x="126" y="548" class="t line">PAYG、月度滚动</text><text x="126" y="609" class="t note">还是能接受固定期限？</text><text x="126" y="704" class="t line">Credit、套餐和</text><text x="126" y="765" class="t note">套餐内用量不是同一概念</text><text x="80" y="954" class="t sub">套餐、价格和促销会变化，选择前重新核对</text><text x="80" y="1382" class="t" font-size="23" fill="#5d7180">不做“最便宜”或“全部无合约”承诺</text></g>
  <g transform="translate(4320)"><rect width="1080" height="1440" fill="#f7f5ef"/><circle cx="950" cy="120" r="225" fill="#d5e3e6"/><text x="80" y="142" class="t tag">第 4 问</text><text x="80" y="244" class="t head">实体 SIM</text><text x="80" y="328" class="t head">还是 eSIM？</text><rect x="78" y="453" width="924" height="409" rx="34" class="card"/><text x="126" y="548" class="t line">实体 SIM</text><text x="126" y="609" class="t note">看卡槽、寄送、换卡和丢失风险</text><text x="126" y="704" class="t line">eSIM</text><text x="126" y="765" class="t note">看精确机型、系统、无锁与恢复能力</text><text x="80" y="954" class="t sub">不是谁更好，而是哪种条件更适合你</text><text x="80" y="1382" class="t" font-size="23" fill="#5d7180">切换前先确认账号和恢复方式可用</text></g>
  <g transform="translate(5400)"><rect width="1080" height="1440" fill="#f7f5ef"/><circle cx="950" cy="120" r="225" fill="#e7cdbf"/><text x="80" y="142" class="t tag">第 5、6 问</text><text x="80" y="244" class="t head">怎样拿到、验收</text><text x="80" y="328" class="t head">以及长期维护？</text><rect x="78" y="453" width="924" height="405" rx="34" class="card"/><text x="126" y="548" class="t line">获取后先验收</text><text x="126" y="609" class="t note">来源、卡状态、账号控制、网络与普通短信</text><text x="126" y="704" class="t line">离开英国后</text><text x="126" y="765" class="t note">是否愿意保存恢复方式并定期核对规则？</text><text x="80" y="956" class="t sub">未知项先标“待核对”，不要用一句推荐替你决定</text><text x="80" y="1382" class="t" font-size="23" fill="#5d7180">完整框架可搜索 getgiffgaff 英国手机卡怎么选</text></g>
</svg>
